<mxfile host="app.diagrams.net" agent="Mozilla/5.0 (Windows NT 10.0; Win64; x64) AppleWebKit/537.36 (KHTML, like Gecko) Chrome/141.0.0.0 Safari/537.36" version="28.2.5">
  <diagram name="Página-1" id="g3L8_VCffunA7m2RyKbb">
    <mxGraphModel dx="1111" dy="517" grid="1" gridSize="10" guides="1" tooltips="1" connect="1" arrows="1" fold="1" page="1" pageScale="1" pageWidth="827" pageHeight="1169" math="0" shadow="0">
      <root>
        <mxCell id="0" />
        <mxCell id="1" parent="0" />
        <mxCell id="9RJ5_KFD5nvwRMHBTUOD-1" value="" style="whiteSpace=wrap;html=1;aspect=fixed;" vertex="1" parent="1">
          <mxGeometry x="204" y="90" width="420" height="420" as="geometry" />
        </mxCell>
        <mxCell id="9RJ5_KFD5nvwRMHBTUOD-2" value="Interessado&amp;nbsp;&lt;div&gt;/&amp;nbsp;&lt;span style=&quot;background-color: transparent; color: light-dark(rgb(0, 0, 0), rgb(255, 255, 255));&quot;&gt;Cliente&lt;/span&gt;&lt;/div&gt;" style="shape=umlActor;verticalLabelPosition=bottom;verticalAlign=top;html=1;outlineConnect=0;" vertex="1" parent="1">
          <mxGeometry x="60" y="210" width="30" height="60" as="geometry" />
        </mxCell>
        <mxCell id="9RJ5_KFD5nvwRMHBTUOD-3" value="Corretores" style="shape=umlActor;verticalLabelPosition=bottom;verticalAlign=top;html=1;outlineConnect=0;" vertex="1" parent="1">
          <mxGeometry x="670" y="130" width="30" height="60" as="geometry" />
        </mxCell>
        <mxCell id="9RJ5_KFD5nvwRMHBTUOD-4" value="Assistente Comercial" style="shape=umlActor;verticalLabelPosition=bottom;verticalAlign=top;html=1;outlineConnect=0;" vertex="1" parent="1">
          <mxGeometry x="670" y="360" width="30" height="60" as="geometry" />
        </mxCell>
        <mxCell id="9RJ5_KFD5nvwRMHBTUOD-20" value="Sistema Seguradora de Vida" style="text;html=1;align=center;verticalAlign=middle;whiteSpace=wrap;rounded=0;" vertex="1" parent="1">
          <mxGeometry x="313" y="90" width="201" height="30" as="geometry" />
        </mxCell>
        <mxCell id="9RJ5_KFD5nvwRMHBTUOD-47" value="Auxiliar interessado na escolha do plano" style="ellipse;whiteSpace=wrap;html=1;" vertex="1" parent="1">
          <mxGeometry x="490" y="100" width="120" height="80" as="geometry" />
        </mxCell>
        <mxCell id="9RJ5_KFD5nvwRMHBTUOD-49" value="Consultar planos e valores" style="ellipse;whiteSpace=wrap;html=1;" vertex="1" parent="1">
          <mxGeometry x="310" y="160" width="120" height="80" as="geometry" />
        </mxCell>
        <mxCell id="9RJ5_KFD5nvwRMHBTUOD-50" value="Consultar apólice e informar siristro" style="ellipse;whiteSpace=wrap;html=1;" vertex="1" parent="1">
          <mxGeometry x="230" y="400" width="120" height="80" as="geometry" />
        </mxCell>
        <mxCell id="9RJ5_KFD5nvwRMHBTUOD-51" value="Finalizar venda" style="ellipse;whiteSpace=wrap;html=1;" vertex="1" parent="1">
          <mxGeometry x="490" y="300" width="120" height="80" as="geometry" />
        </mxCell>
        <mxCell id="9RJ5_KFD5nvwRMHBTUOD-52" value="Fazer cadastro" style="ellipse;whiteSpace=wrap;html=1;" vertex="1" parent="1">
          <mxGeometry x="294" y="270" width="120" height="80" as="geometry" />
        </mxCell>
        <mxCell id="9RJ5_KFD5nvwRMHBTUOD-53" value="Fazer pagamento" style="ellipse;whiteSpace=wrap;html=1;" vertex="1" parent="1">
          <mxGeometry x="354" y="360" width="120" height="80" as="geometry" />
        </mxCell>
        <mxCell id="9RJ5_KFD5nvwRMHBTUOD-55" value="" style="endArrow=none;html=1;rounded=0;fontSize=12;startSize=8;endSize=8;curved=1;entryX=0;entryY=0.5;entryDx=0;entryDy=0;" edge="1" parent="1" source="9RJ5_KFD5nvwRMHBTUOD-2" target="9RJ5_KFD5nvwRMHBTUOD-49">
          <mxGeometry width="50" height="50" relative="1" as="geometry">
            <mxPoint x="540" y="300" as="sourcePoint" />
            <mxPoint x="590" y="250" as="targetPoint" />
          </mxGeometry>
        </mxCell>
        <mxCell id="9RJ5_KFD5nvwRMHBTUOD-56" value="" style="endArrow=none;html=1;rounded=0;fontSize=12;startSize=8;endSize=8;curved=1;" edge="1" parent="1" source="9RJ5_KFD5nvwRMHBTUOD-2" target="9RJ5_KFD5nvwRMHBTUOD-52">
          <mxGeometry width="50" height="50" relative="1" as="geometry">
            <mxPoint x="540" y="300" as="sourcePoint" />
            <mxPoint x="590" y="250" as="targetPoint" />
          </mxGeometry>
        </mxCell>
        <mxCell id="9RJ5_KFD5nvwRMHBTUOD-57" value="" style="endArrow=none;html=1;rounded=0;fontSize=12;startSize=8;endSize=8;curved=1;exitX=1;exitY=0.5;exitDx=0;exitDy=0;entryX=0;entryY=0.388;entryDx=0;entryDy=0;entryPerimeter=0;" edge="1" parent="1" source="9RJ5_KFD5nvwRMHBTUOD-49" target="9RJ5_KFD5nvwRMHBTUOD-47">
          <mxGeometry width="50" height="50" relative="1" as="geometry">
            <mxPoint x="540" y="300" as="sourcePoint" />
            <mxPoint x="590" y="250" as="targetPoint" />
          </mxGeometry>
        </mxCell>
        <mxCell id="9RJ5_KFD5nvwRMHBTUOD-58" value="" style="endArrow=none;html=1;rounded=0;fontSize=12;startSize=8;endSize=8;curved=1;" edge="1" parent="1" source="9RJ5_KFD5nvwRMHBTUOD-47" target="9RJ5_KFD5nvwRMHBTUOD-3">
          <mxGeometry width="50" height="50" relative="1" as="geometry">
            <mxPoint x="540" y="300" as="sourcePoint" />
            <mxPoint x="590" y="250" as="targetPoint" />
          </mxGeometry>
        </mxCell>
        <mxCell id="9RJ5_KFD5nvwRMHBTUOD-59" value="" style="endArrow=none;html=1;rounded=0;fontSize=12;startSize=8;endSize=8;curved=1;exitX=1;exitY=0.288;exitDx=0;exitDy=0;exitPerimeter=0;entryX=0.1;entryY=0.738;entryDx=0;entryDy=0;entryPerimeter=0;" edge="1" parent="1" source="9RJ5_KFD5nvwRMHBTUOD-53" target="9RJ5_KFD5nvwRMHBTUOD-51">
          <mxGeometry width="50" height="50" relative="1" as="geometry">
            <mxPoint x="540" y="300" as="sourcePoint" />
            <mxPoint x="590" y="250" as="targetPoint" />
          </mxGeometry>
        </mxCell>
        <mxCell id="9RJ5_KFD5nvwRMHBTUOD-60" value="" style="endArrow=none;html=1;rounded=0;fontSize=12;startSize=8;endSize=8;curved=1;exitX=0.908;exitY=0.288;exitDx=0;exitDy=0;exitPerimeter=0;" edge="1" parent="1" source="9RJ5_KFD5nvwRMHBTUOD-51" target="9RJ5_KFD5nvwRMHBTUOD-3">
          <mxGeometry width="50" height="50" relative="1" as="geometry">
            <mxPoint x="540" y="300" as="sourcePoint" />
            <mxPoint x="590" y="250" as="targetPoint" />
          </mxGeometry>
        </mxCell>
        <mxCell id="9RJ5_KFD5nvwRMHBTUOD-61" value="" style="endArrow=none;html=1;rounded=0;fontSize=12;startSize=8;endSize=8;curved=1;exitX=0;exitY=0.5;exitDx=0;exitDy=0;" edge="1" parent="1" source="9RJ5_KFD5nvwRMHBTUOD-53" target="9RJ5_KFD5nvwRMHBTUOD-2">
          <mxGeometry width="50" height="50" relative="1" as="geometry">
            <mxPoint x="540" y="300" as="sourcePoint" />
            <mxPoint x="590" y="250" as="targetPoint" />
          </mxGeometry>
        </mxCell>
        <mxCell id="9RJ5_KFD5nvwRMHBTUOD-62" value="" style="endArrow=none;html=1;rounded=0;fontSize=12;startSize=8;endSize=8;curved=1;exitX=0.042;exitY=0.4;exitDx=0;exitDy=0;exitPerimeter=0;" edge="1" parent="1" source="9RJ5_KFD5nvwRMHBTUOD-50" target="9RJ5_KFD5nvwRMHBTUOD-2">
          <mxGeometry width="50" height="50" relative="1" as="geometry">
            <mxPoint x="540" y="300" as="sourcePoint" />
            <mxPoint x="590" y="250" as="targetPoint" />
          </mxGeometry>
        </mxCell>
        <mxCell id="9RJ5_KFD5nvwRMHBTUOD-63" value="Agendar reunião entre corretor e cliente" style="ellipse;whiteSpace=wrap;html=1;" vertex="1" parent="1">
          <mxGeometry x="490" y="410" width="120" height="80" as="geometry" />
        </mxCell>
        <mxCell id="9RJ5_KFD5nvwRMHBTUOD-64" value="" style="endArrow=none;html=1;rounded=0;fontSize=12;startSize=8;endSize=8;curved=1;exitX=1;exitY=0.5;exitDx=0;exitDy=0;" edge="1" parent="1" source="9RJ5_KFD5nvwRMHBTUOD-63" target="9RJ5_KFD5nvwRMHBTUOD-4">
          <mxGeometry width="50" height="50" relative="1" as="geometry">
            <mxPoint x="540" y="300" as="sourcePoint" />
            <mxPoint x="590" y="250" as="targetPoint" />
          </mxGeometry>
        </mxCell>
        <mxCell id="9RJ5_KFD5nvwRMHBTUOD-65" value="Fazer simulação para o cliente" style="ellipse;whiteSpace=wrap;html=1;" vertex="1" parent="1">
          <mxGeometry x="450" y="200" width="120" height="80" as="geometry" />
        </mxCell>
        <mxCell id="9RJ5_KFD5nvwRMHBTUOD-66" value="" style="endArrow=none;html=1;rounded=0;fontSize=12;startSize=8;endSize=8;curved=1;entryX=0.925;entryY=0.738;entryDx=0;entryDy=0;entryPerimeter=0;exitX=0;exitY=0.5;exitDx=0;exitDy=0;" edge="1" parent="1" source="9RJ5_KFD5nvwRMHBTUOD-65" target="9RJ5_KFD5nvwRMHBTUOD-49">
          <mxGeometry width="50" height="50" relative="1" as="geometry">
            <mxPoint x="540" y="300" as="sourcePoint" />
            <mxPoint x="590" y="250" as="targetPoint" />
          </mxGeometry>
        </mxCell>
        <mxCell id="9RJ5_KFD5nvwRMHBTUOD-67" value="" style="endArrow=none;html=1;rounded=0;fontSize=12;startSize=8;endSize=8;curved=1;exitX=1;exitY=0.5;exitDx=0;exitDy=0;" edge="1" parent="1" source="9RJ5_KFD5nvwRMHBTUOD-65" target="9RJ5_KFD5nvwRMHBTUOD-3">
          <mxGeometry width="50" height="50" relative="1" as="geometry">
            <mxPoint x="540" y="300" as="sourcePoint" />
            <mxPoint x="590" y="250" as="targetPoint" />
          </mxGeometry>
        </mxCell>
        <mxCell id="9RJ5_KFD5nvwRMHBTUOD-68" value="Contratar a seguradora" style="ellipse;whiteSpace=wrap;html=1;" vertex="1" parent="1">
          <mxGeometry x="210" y="100" width="120" height="80" as="geometry" />
        </mxCell>
        <mxCell id="9RJ5_KFD5nvwRMHBTUOD-69" value="" style="endArrow=none;html=1;rounded=0;fontSize=12;startSize=8;endSize=8;curved=1;entryX=0;entryY=0.5;entryDx=0;entryDy=0;" edge="1" parent="1" source="9RJ5_KFD5nvwRMHBTUOD-2" target="9RJ5_KFD5nvwRMHBTUOD-68">
          <mxGeometry width="50" height="50" relative="1" as="geometry">
            <mxPoint x="540" y="300" as="sourcePoint" />
            <mxPoint x="590" y="250" as="targetPoint" />
          </mxGeometry>
        </mxCell>
      </root>
    </mxGraphModel>
  </diagram>
</mxfile>
